<?xml version="1.0" encoding="UTF-8"?>
<svg id="Layer_2" data-name="Layer 2" xmlns="http://www.w3.org/2000/svg" viewBox="0 0 512 512">
  <defs>
    <style>
      .cls-1 {
        fill: #fff;
      }

      .cls-2 {
        fill: #252223;
      }
    </style>
  </defs>
  <g id="Layer_1-2" data-name="Layer 1">
    <rect class="cls-1" width="512" height="512"/>
    <g>
      <g>
        <path class="cls-2" d="M80.01,156.68l12.46,41.66s69.43-10.64,98.51,18.69c0,0-40.76-20.25-93.84-7.79l46.33,135.5h95.78s4.66,11.81,16.74,10.64v-15.31c-8.44,.39-14.8-9.73-14.8-9.73h-86.83l-28.81-82.93c2.57-2.78,43.73-7.53,69.82,.26,32.09,9.58,60.62,43.02,60.62,43.02v-60.03s-25.7-77.87-175.99-73.98Z"/>
        <path class="cls-2" d="M159.31,292.69c33.1,1.68,75.02,14.41,75.02,14.41-28.29-17.13-75.02-14.41-75.02-14.41Z"/>
        <path class="cls-2" d="M144.82,268.76c35.88,1.82,81.32,15.62,81.32,15.62-30.67-18.57-81.32-15.62-81.32-15.62Z"/>
      </g>
      <g>
        <path class="cls-2" d="M431.99,156.68l-12.46,41.66s-69.43-10.64-98.51,18.69c0,0,40.76-20.25,93.84-7.79l-46.33,135.5h-95.78s-4.66,11.81-16.74,10.64v-15.31c8.44,.39,14.8-9.73,14.8-9.73h86.83s28.81-82.93,28.81-82.93c-2.57-2.78-43.73-7.53-69.82,.26-32.09,9.58-60.62,43.02-60.62,43.02v-60.03s25.7-77.87,175.99-73.98Z"/>
        <path class="cls-2" d="M352.69,292.69c-33.1,1.68-75.02,14.41-75.02,14.41,28.29-17.13,75.02-14.41,75.02-14.41Z"/>
        <path class="cls-2" d="M367.18,268.76c-35.88,1.82-81.32,15.62-81.32,15.62,30.67-18.57,81.32-15.62,81.32-15.62Z"/>
      </g>
    </g>
  </g>
</svg>